<svg width="235" height="26" viewBox="0 0 235 26" fill="none" xmlns="http://www.w3.org/2000/svg">
<path d="M15.0049 13.0159V25.9618H15.3677C19.7371 25.7358 23.5305 23.349 25.7104 19.8516C23.6641 15.7845 19.6384 13.0159 15.0049 13.0159Z" fill="#00C1B3"/>
<path d="M15.0049 0C18.1363 0 20.6759 2.53953 20.6759 5.67099C20.6759 8.80245 18.1363 11.342 15.0049 11.342V0Z" fill="#00C1B3"/>
<path d="M12.9809 0.0349121C5.81102 0.0349121 0 5.84911 0 13.0158C0 20.1825 5.81102 25.9967 12.9809 25.9967V0.0349121Z" fill="#00C1B3"/>
<path d="M39.0873 20.9983C37.8739 20.9983 36.7576 20.8013 35.744 20.4101C34.7304 20.019 33.8454 19.4622 33.0887 18.7428C32.3321 18.0233 31.7469 17.1753 31.3329 16.1989C30.9189 15.2224 30.7104 14.1546 30.7104 12.9983C30.7104 11.842 30.9189 10.777 31.3329 9.79772C31.7469 8.82127 32.335 7.97331 33.1002 7.25382C33.8625 6.53434 34.7561 5.98045 35.7783 5.58644C36.8004 5.19244 37.9196 4.99829 39.133 4.99829C40.4521 4.99829 41.6398 5.21242 42.699 5.64354C43.7583 6.07467 44.6519 6.70279 45.3771 7.53362L43.5556 9.31235C42.9474 8.70422 42.2936 8.25596 41.5884 7.9676C40.8832 7.67923 40.1123 7.53362 39.2672 7.53362C38.4221 7.53362 37.6969 7.66781 37.0002 7.93334C36.3036 8.19886 35.704 8.57859 35.2015 9.06681C34.699 9.55504 34.3079 10.1318 34.0366 10.7999C33.7626 11.4651 33.6255 12.1989 33.6255 12.9983C33.6255 13.7977 33.7626 14.5086 34.0366 15.1767C34.3107 15.842 34.699 16.4244 35.2015 16.9212C35.704 17.418 36.2979 17.8006 36.9803 18.0661C37.6626 18.3316 38.4164 18.4658 39.2472 18.4658C40.0181 18.4658 40.7633 18.343 41.4799 18.1004C42.1994 17.8548 42.8846 17.4437 43.5356 16.867L45.1801 19.0226C44.3664 19.6735 43.4214 20.1675 42.3478 20.4986C41.2743 20.8327 40.1894 20.9983 39.093 20.9983H39.0873ZM42.4421 18.6428V12.8213H45.1744V19.0197L42.4421 18.6428Z" fill="#00C1B3"/>
<path d="M51.864 18.3544H60.6406V20.7756H48.9746V5.22095H60.3294V7.64207H51.864V18.3516V18.3544ZM51.6413 11.6878H59.3729V14.0661H51.6413V11.6878Z" fill="#00C1B3"/>
<path d="M68.6833 20.9984C67.467 20.9984 66.305 20.8242 65.1944 20.4759C64.0837 20.1276 63.2015 19.6793 62.5505 19.1311L63.5498 16.887C64.1722 17.3752 64.9431 17.7835 65.8596 18.109C66.7789 18.4345 67.7183 18.5972 68.6833 18.5972C69.497 18.5972 70.1565 18.5087 70.6619 18.3317C71.1644 18.1547 71.5355 17.912 71.7725 17.6094C72.0095 17.3067 72.1266 16.9613 72.1266 16.5758C72.1266 16.1019 71.9552 15.7193 71.6155 15.4309C71.2757 15.1425 70.8332 14.9113 70.2936 14.7428C69.7511 14.5744 69.1515 14.4145 68.4949 14.266C67.8353 14.1176 67.1758 13.9434 66.5163 13.7435C65.8567 13.5437 65.2572 13.2839 64.7176 12.967C64.1779 12.65 63.7354 12.2218 63.3956 11.6879C63.0559 11.154 62.8846 10.4745 62.8846 9.64362C62.8846 8.81278 63.1101 8.02478 63.5612 7.32242C64.0123 6.62006 64.7033 6.05475 65.6283 5.63505C66.5534 5.2125 67.7268 5.00122 69.1487 5.00122C70.0823 5.00122 71.0074 5.11828 71.9267 5.35525C72.846 5.59223 73.6455 5.93198 74.325 6.37738L73.4142 8.62149C72.7176 8.2075 71.9981 7.89915 71.2586 7.69929C70.5163 7.49944 69.8054 7.39951 69.1258 7.39951C68.3264 7.39951 67.6783 7.49658 67.1815 7.68787C66.6847 7.87917 66.3221 8.13327 66.0937 8.44162C65.8625 8.75283 65.7483 9.10686 65.7483 9.50943C65.7483 9.98338 65.9138 10.366 66.2479 10.6543C66.5819 10.9427 67.0188 11.1682 67.5584 11.331C68.098 11.4937 68.7033 11.6536 69.3685 11.8078C70.0338 11.962 70.699 12.139 71.3585 12.3303C72.0181 12.5244 72.6176 12.7757 73.1572 13.0869C73.6969 13.3981 74.1337 13.8206 74.4677 14.3545C74.8018 14.8884 74.9674 15.5622 74.9674 16.376C74.9674 17.1897 74.7418 17.972 74.2907 18.6743C73.8396 19.3767 73.1458 19.942 72.2122 20.3645C71.2786 20.7871 70.1023 20.9984 68.6804 20.9984H68.6833Z" fill="#00C1B3"/>
<path d="M77.8368 20.7756V5.22095H80.7262V20.7756H77.8368Z" fill="#00C1B3"/>
<path d="M82.7247 20.7756L89.7226 5.22095H92.5663L99.587 20.7756H96.5663L90.5449 6.75414H91.7012L85.7026 20.7756H82.7247ZM85.9481 17.1753L86.7247 14.9083H95.1244L95.901 17.1753H85.9453H85.9481Z" fill="#00C1B3"/>
<path d="M107.701 20.7756V5.22095H114.1C115.479 5.22095 116.658 5.44365 117.643 5.88619C118.628 6.32873 119.387 6.96827 119.921 7.79625C120.455 8.62709 120.72 9.6121 120.72 10.7513C120.72 11.8905 120.455 12.8783 119.921 13.7063C119.387 14.5371 118.628 15.1738 117.643 15.6164C116.658 16.0589 115.476 16.2816 114.1 16.2816H109.3L110.588 14.9254V20.7698H107.698L107.701 20.7756ZM110.591 15.2424L109.303 13.8434H113.968C115.242 13.8434 116.201 13.5721 116.846 13.0325C117.491 12.4929 117.814 11.7334 117.814 10.7541C117.814 9.77484 117.491 8.99825 116.846 8.4672C116.201 7.9333 115.242 7.66777 113.968 7.66777H109.303L110.591 6.24593V15.2452V15.2424Z" fill="#5A6058"/>
<path d="M123.61 20.7756V5.22095H126.499V18.3316H134.63V20.7756H123.61Z" fill="#5A6058"/>
<path d="M136.966 20.7756L143.964 5.22095H146.807L153.828 20.7756H150.807L144.786 6.75414H145.942L139.944 20.7756H136.966ZM140.186 17.1753L140.963 14.9083H149.363L150.139 17.1753H140.184H140.186Z" fill="#5A6058"/>
<path d="M157.297 20.7756V7.66492H152.144V5.22095H165.343V7.66492H160.186V20.7756H157.297Z" fill="#5A6058"/>
<path d="M170.85 20.7756H167.961V5.22095H179.316V7.64207H170.85V20.7756ZM170.605 12.3758H178.359V14.8198H170.605V12.3758Z" fill="#5A6058"/>
<path d="M189.671 20.9983C188.455 20.9983 187.339 20.7984 186.316 20.3987C185.294 19.999 184.406 19.4394 183.65 18.7199C182.893 18.0004 182.308 17.1582 181.894 16.1874C181.48 15.2167 181.271 14.1546 181.271 12.9983C181.271 11.842 181.48 10.7799 181.894 9.80914C182.308 8.83841 182.893 7.99329 183.65 7.27666C184.406 6.56003 185.294 5.99758 186.316 5.59786C187.339 5.19815 188.449 4.99829 189.648 4.99829C190.847 4.99829 191.978 5.19815 192.992 5.59786C194.005 5.99758 194.89 6.55718 195.647 7.27666C196.404 7.99615 196.989 8.83841 197.403 9.80914C197.817 10.7799 198.025 11.842 198.025 12.9983C198.025 14.1546 197.817 15.2196 197.403 16.1989C196.989 17.1753 196.404 18.0204 195.647 18.7313C194.893 19.4423 194.005 19.999 192.992 20.3987C191.978 20.7984 190.87 20.9983 189.668 20.9983H189.671ZM189.648 18.4658C190.434 18.4658 191.159 18.3316 191.827 18.0661C192.492 17.8006 193.072 17.418 193.56 16.9212C194.048 16.4244 194.431 15.8477 194.705 15.1882C194.979 14.5286 195.116 13.8006 195.116 12.9983C195.116 12.196 194.979 11.468 194.705 10.8084C194.431 10.1489 194.048 9.57217 193.56 9.07538C193.072 8.57859 192.495 8.19886 191.827 7.93048C191.159 7.6621 190.434 7.53077 189.648 7.53077C188.863 7.53077 188.141 7.66496 187.481 7.93048C186.822 8.19601 186.245 8.57859 185.748 9.07538C185.251 9.57217 184.866 10.1489 184.592 10.8084C184.318 11.468 184.181 12.196 184.181 12.9983C184.181 13.8006 184.318 14.5086 184.592 15.1767C184.866 15.842 185.249 16.4244 185.737 16.9212C186.225 17.418 186.802 17.8006 187.47 18.0661C188.135 18.3316 188.86 18.4658 189.648 18.4658Z" fill="#5A6058"/>
<path d="M201.092 20.7756V5.22095H207.49C208.869 5.22095 210.048 5.44365 211.033 5.88619C212.018 6.32873 212.778 6.96827 213.311 7.79625C213.845 8.62709 214.111 9.6121 214.111 10.7513C214.111 11.8905 213.845 12.8726 213.311 13.6949C212.778 14.5172 212.018 15.1481 211.033 15.585C210.048 16.0218 208.866 16.2416 207.49 16.2416H202.69L203.978 14.9312V20.7756H201.089H201.092ZM203.981 15.2424L202.693 13.8633H207.359C208.632 13.8633 209.591 13.5893 210.236 13.0411C210.882 12.4929 211.204 11.7306 211.204 10.7513C211.204 9.77198 210.882 8.99539 210.236 8.46434C209.591 7.93044 208.632 7.66492 207.359 7.66492H202.693L203.981 6.24307V15.2424ZM211.267 20.7756L207.336 15.131H210.425L214.379 20.7756H211.267Z" fill="#5A6058"/>
<path d="M217.334 20.7756V5.22095H219.713L226.513 16.5757H225.269L231.958 5.22095H234.336L234.359 20.7756H231.627L231.604 9.50931H232.181L226.493 18.9968H225.206L219.43 9.50931H220.095V20.7756H217.34H217.334Z" fill="#5A6058"/>
</svg>
