<svg width="108" height="26" viewBox="0 0 108 26" fill="none" xmlns="http://www.w3.org/2000/svg">
<g clip-path="url(#clip0_174_943)">
<path d="M40.3461 21.7802C38.9936 21.7802 37.7493 21.5606 36.6196 21.1246C35.4898 20.6886 34.5033 20.068 33.6599 19.2661C32.8166 18.4641 32.1642 17.519 31.7028 16.4306C31.2413 15.3422 31.009 14.152 31.009 12.8632C31.009 11.5743 31.2413 10.3873 31.7028 9.29571C32.1642 8.20734 32.8198 7.26217 33.6727 6.46021C34.5224 5.65825 35.5185 5.04087 36.6577 4.60171C37.797 4.16254 39.0445 3.94614 40.397 3.94614C41.8673 3.94614 43.1912 4.18481 44.3718 4.66535C45.5525 5.14589 46.5486 5.84601 47.3569 6.77209L45.3265 8.7547C44.6487 8.07686 43.9199 7.57723 43.1339 7.25581C42.3478 6.93439 41.4886 6.77209 40.5466 6.77209C39.6046 6.77209 38.7963 6.92166 38.0198 7.21762C37.2433 7.51358 36.575 7.93683 36.0149 8.48102C35.4548 9.02521 35.0188 9.66805 34.7165 10.4127C34.411 11.1542 34.2582 11.9721 34.2582 12.8632C34.2582 13.7542 34.411 14.5466 34.7165 15.2913C35.022 16.0328 35.4548 16.682 36.0149 17.2357C36.575 17.7895 37.2369 18.2159 37.9975 18.5119C38.7581 18.8078 39.5983 18.9574 40.5243 18.9574C41.3836 18.9574 42.2142 18.8206 43.013 18.5501C43.8149 18.2764 44.5787 17.8181 45.3043 17.1753L47.1373 19.578C46.2303 20.3035 45.177 20.8541 43.9804 21.2232C42.7838 21.5956 41.5745 21.7802 40.3525 21.7802H40.3461ZM44.0854 19.1547V12.6658H47.1309V19.5748L44.0854 19.1547Z" fill="#00C1B3"/>
<path d="M54.5873 18.8333H64.3699V21.5319H51.3667V4.19437H64.023V6.89302H54.5873V18.8301V18.8333ZM54.339 11.4024H62.9569V14.0534H54.339V11.4024Z" fill="#00C1B3"/>
<path d="M73.3346 21.7802C71.9789 21.7802 70.6837 21.5861 69.4458 21.1978C68.2078 20.8096 67.2245 20.3099 66.4989 19.6989L67.6127 17.1976C68.3065 17.7418 69.1657 18.1968 70.1873 18.5596C71.212 18.9224 72.259 19.1038 73.3346 19.1038C74.2416 19.1038 74.9767 19.0052 75.54 18.8078C76.1001 18.6105 76.5138 18.34 76.778 18.0027C77.0421 17.6654 77.1726 17.2803 77.1726 16.8507C77.1726 16.3224 76.9816 15.896 76.6029 15.5746C76.2242 15.2531 75.731 14.9954 75.1295 14.8076C74.5248 14.6198 73.8565 14.4416 73.1246 14.2761C72.3895 14.1107 71.6543 13.9165 70.9192 13.6938C70.1841 13.471 69.5158 13.1814 68.9143 12.8282C68.3129 12.4749 67.8196 11.9976 67.4409 11.4025C67.0622 10.8074 66.8712 10.05 66.8712 9.12388C66.8712 8.19781 67.1226 7.31948 67.6255 6.53661C68.1283 5.75375 68.8984 5.12364 69.9295 4.65583C70.9606 4.18484 72.2685 3.94934 73.8534 3.94934C74.894 3.94934 75.9251 4.07982 76.9498 4.34396C77.9745 4.60809 78.8656 4.98679 79.623 5.48325L78.6078 7.98459C77.8313 7.52315 77.0294 7.17945 76.2051 6.95669C75.3777 6.73392 74.5853 6.62254 73.8279 6.62254C72.9368 6.62254 72.2144 6.73074 71.6607 6.94396C71.107 7.15717 70.7028 7.44041 70.4482 7.7841C70.1905 8.13098 70.0632 8.5256 70.0632 8.97431C70.0632 9.50259 70.2477 9.92902 70.6201 10.2504C70.9924 10.5719 71.4793 10.8233 72.0808 11.0047C72.6823 11.1861 73.3569 11.3643 74.0984 11.5361C74.8399 11.708 75.5814 11.9053 76.3165 12.1185C77.0517 12.3349 77.72 12.6149 78.3214 12.9618C78.9229 13.3087 79.4098 13.7797 79.7821 14.3748C80.1545 14.9699 80.339 15.7209 80.339 16.6279C80.339 17.5349 80.0876 18.4069 79.5848 19.1897C79.082 19.9726 78.3087 20.6027 77.2681 21.0737C76.2274 21.5447 74.9163 21.7802 73.3315 21.7802H73.3346Z" fill="#00C1B3"/>
<path d="M83.5374 21.5319V4.19437H86.7579V21.5319H83.5374Z" fill="#00C1B3"/>
<path d="M88.9856 21.5319L96.7856 4.19437H99.9552L107.781 21.5319H104.414L97.7021 5.9033H98.991L92.3048 21.5319H88.9856ZM92.5785 17.519L93.4441 14.9922H102.807L103.672 17.519H92.5753H92.5785Z" fill="#00C1B3"/>
<path d="M15.0049 13.0159V25.9618H15.3677C19.7371 25.7359 23.5305 23.3491 25.7104 19.8516C23.6641 15.7846 19.6384 13.0159 15.0049 13.0159Z" fill="#00C1B3"/>
<path d="M15.0049 0C18.1363 0 20.6759 2.53953 20.6759 5.67099C20.6759 8.80245 18.1363 11.342 15.0049 11.342V0Z" fill="#00C1B3"/>
<path d="M12.9809 0.0350037C5.81102 0.0350037 0 5.8492 0 13.0159C0 20.1826 5.81102 25.9968 12.9809 25.9968V0.0350037Z" fill="#00C1B3"/>
</g>
<defs>
<clipPath id="clip0_174_943">
<rect width="107.784" height="26" fill="white"/>
</clipPath>
</defs>
</svg>
