<svg width="186" height="26" viewBox="0 0 186 26" fill="none" xmlns="http://www.w3.org/2000/svg">
<path d="M15.0049 13.0159V25.9618H15.3677C19.7371 25.7359 23.5305 23.3491 25.7104 19.8516C23.6641 15.7846 19.6384 13.0159 15.0049 13.0159Z" fill="#00C1B3"/>
<path d="M15.0049 0C18.1364 0 20.6759 2.53953 20.6759 5.67099C20.6759 8.80245 18.1364 11.342 15.0049 11.342V0Z" fill="#00C1B3"/>
<path d="M12.9809 0.0350037C5.81102 0.0350037 0 5.8492 0 13.0159C0 20.1826 5.81102 25.9968 12.9809 25.9968V0.0350037Z" fill="#00C1B3"/>
<path d="M42.7367 12.8206H45.468V19.0178C43.8475 20.3279 41.5805 20.9943 39.3818 20.9943C34.5602 20.9943 31.0059 17.6394 31.0059 12.9972C31.0059 8.35496 34.5602 5.00003 39.4245 5.00003C42.0247 5.00003 44.2006 5.86582 45.6673 7.53189L43.8446 9.30904C42.6228 8.08725 41.2245 7.53189 39.5584 7.53189C36.249 7.53189 33.9165 9.77611 33.9165 12.9972C33.9165 16.2183 36.249 18.4625 39.5356 18.4625C40.6463 18.4625 41.7342 18.2403 42.7339 17.6622V12.8206H42.7367Z" fill="#00C1B3"/>
<path d="M60.9069 18.3543V20.7751H49.2444V5.22507H60.5964V7.64586H52.1322V11.69H59.6395V14.0681H52.1322V18.3543H60.9069Z" fill="#00C1B3"/>
<path d="M62.795 19.1317L63.7946 16.8875C65.0392 17.8872 67.0157 18.5992 68.9267 18.5992C71.3475 18.5992 72.3699 17.7334 72.3699 16.5771C72.3699 13.2222 63.1282 15.4208 63.1282 9.64509C63.1282 7.13601 65.1275 5.00287 69.3938 5.00287C71.2592 5.00287 73.2158 5.49272 74.5686 6.3813L73.6572 8.62551C72.2588 7.80244 70.7238 7.40372 69.371 7.40372C66.973 7.40372 65.9933 8.33786 65.9933 9.51408C65.9933 12.8234 75.2122 10.6704 75.2122 16.3777C75.2122 18.8669 73.1901 20.9972 68.9267 20.9972C66.5059 20.9972 64.0851 20.2425 62.795 19.1317Z" fill="#00C1B3"/>
<path d="M78.0576 5.22507H80.9455V20.7751H78.0576V5.22507Z" fill="#00C1B3"/>
<path d="M95.2054 17.1752H87.4304L85.8982 20.7751H82.9221L89.9196 5.22507H92.7619L99.7822 20.7751H96.7604L95.2054 17.1752ZM94.2514 14.9111L91.3179 8.11293L88.4073 14.9111H94.2485H94.2514Z" fill="#00C1B3"/>
<path d="M107.808 19.1317L108.807 16.8875C110.052 17.8872 112.028 18.5992 113.939 18.5992C116.36 18.5992 117.383 17.7334 117.383 16.5771C117.383 13.2222 108.141 15.4208 108.141 9.64509C108.141 7.13601 110.14 5.00287 114.406 5.00287C116.272 5.00287 118.228 5.49272 119.581 6.3813L118.67 8.62551C117.269 7.80244 115.736 7.40372 114.384 7.40372C111.986 7.40372 111.006 8.33786 111.006 9.51408C111.006 12.8234 120.225 10.6704 120.225 16.3777C120.225 18.8669 118.203 20.9972 113.936 20.9972C111.516 20.9972 109.095 20.2425 107.805 19.1317H107.808Z" fill="#5A6058"/>
<path d="M121.956 13C121.956 8.3578 125.51 5.00287 130.287 5.00287C132.818 5.00287 134.997 5.91422 136.441 7.60308L134.576 9.35744C133.442 8.13566 132.044 7.53473 130.42 7.53473C127.199 7.53473 124.867 9.80173 124.867 13C124.867 16.1983 127.199 18.4653 130.42 18.4653C132.041 18.4653 133.442 17.8644 134.576 16.6227L136.441 18.3998C134.997 20.0887 132.821 21 130.267 21C125.513 21 121.959 17.6451 121.959 13.0029L121.956 13Z" fill="#5A6058"/>
<path d="M148.947 17.1752H141.172L139.64 20.7751H136.663L143.661 5.22507H146.503L153.524 20.7751H150.502L148.947 17.1752ZM147.993 14.9111L145.059 8.11293L142.149 14.9111H147.99H147.993Z" fill="#5A6058"/>
<path d="M169.295 5.22507V20.7751H166.917L158.342 10.2461V20.7751H155.477V5.22507H157.855L166.43 15.7541V5.22507H169.295Z" fill="#5A6058"/>
</svg>
