<svg width="241" height="26" viewBox="0 0 241 26" fill="none" xmlns="http://www.w3.org/2000/svg">
<path d="M15.0049 13.0159V25.9618H15.3677C19.7371 25.7358 23.5305 23.349 25.7104 19.8516C23.6641 15.7845 19.6384 13.0159 15.0049 13.0159Z" fill="#00C1B3"/>
<path d="M15.0049 0C18.1363 0 20.6759 2.53953 20.6759 5.67099C20.6759 8.80245 18.1363 11.342 15.0049 11.342V0Z" fill="#00C1B3"/>
<path d="M12.9809 0.0350342C5.81102 0.0350342 0 5.84923 0 13.0159C0 20.1826 5.81102 25.9968 12.9809 25.9968V0.0350342Z" fill="#00C1B3"/>
<path d="M43.7598 8.98033C43.7598 12.409 41.2219 14.5244 37.1224 14.5244H33.6052V19.0236H30.7104V3.43628H37.1224C41.219 3.43628 43.7598 5.52886 43.7598 8.98033ZM40.8422 8.98033C40.8422 7.02192 39.529 5.88571 36.991 5.88571H33.6052V12.0749H36.991C39.529 12.0749 40.8422 10.9387 40.8422 8.98033Z" fill="#5A6058"/>
<path d="M45.3413 13.0769C45.3413 9.51411 48.0134 6.99902 51.6647 6.99902C55.316 6.99902 58.011 9.51411 58.011 13.0769C58.011 16.6397 55.3617 19.1777 51.6647 19.1777C47.9677 19.1777 45.3413 16.6397 45.3413 13.0769ZM55.2047 13.0769C55.2047 10.8045 53.6916 9.3571 51.6647 9.3571C49.6378 9.3571 48.1476 10.8045 48.1476 13.0769C48.1476 15.3493 49.6606 16.7967 51.6647 16.7967C53.6688 16.7967 55.2047 15.3493 55.2047 13.0769Z" fill="#5A6058"/>
<path d="M78.8769 7.13037L74.489 19.0207H71.8169L68.7451 10.8245L65.6277 19.0207H62.9556L58.5906 7.13037H61.217L64.3573 15.9032L67.6318 7.13037H69.9699L73.1758 15.9489L76.4046 7.13037H78.8769Z" fill="#5A6058"/>
<path d="M91.5666 13.9677H82.2371C82.5711 15.7034 84.0185 16.8168 86.0882 16.8168C87.4242 16.8168 88.472 16.3943 89.317 15.5264L90.8101 17.2422C89.7424 18.5126 88.0723 19.1806 86.0225 19.1806C82.0372 19.1806 79.4536 16.6198 79.4536 13.0798C79.4536 9.53988 82.0601 7.00195 85.6 7.00195C89.14 7.00195 91.6123 9.42854 91.6123 13.1484C91.6123 13.371 91.5894 13.7051 91.5666 13.9734V13.9677ZM82.2142 12.1206H88.963C88.7403 10.4049 87.4271 9.22585 85.6 9.22585C83.7729 9.22585 82.4826 10.3849 82.2142 12.1206Z" fill="#5A6058"/>
<path d="M101.142 6.99907V9.64834C100.896 9.60266 100.696 9.58268 100.496 9.58268C98.381 9.58268 97.0449 10.8302 97.0449 13.2568V19.0235H94.2615V7.13039H96.9107V8.86612C97.7129 7.61856 99.1603 6.99622 101.142 6.99622V6.99907Z" fill="#5A6058"/>
<path d="M114.502 13.9677H105.173C105.507 15.7034 106.954 16.8168 109.024 16.8168C110.36 16.8168 111.408 16.3943 112.253 15.5264L113.746 17.2422C112.678 18.5126 111.008 19.1806 108.958 19.1806C104.973 19.1806 102.389 16.6198 102.389 13.0798C102.389 9.53988 104.996 7.00195 108.536 7.00195C112.076 7.00195 114.548 9.42854 114.548 13.1484C114.548 13.371 114.525 13.7051 114.502 13.9734V13.9677ZM105.15 12.1206H111.896C111.673 10.4049 110.36 9.22585 108.533 9.22585C106.706 9.22585 105.415 10.3849 105.147 12.1206H105.15Z" fill="#5A6058"/>
<path d="M128.845 2.49988V19.0235H126.173V17.4876C125.236 18.6239 123.857 19.1805 122.23 19.1805C118.779 19.1805 116.218 16.7768 116.218 13.0798C116.218 9.38283 118.779 7.00192 122.23 7.00192C123.766 7.00192 125.125 7.51293 126.061 8.60632V2.49988H128.845ZM126.104 13.077C126.104 10.8045 124.568 9.35714 122.564 9.35714C120.56 9.35714 119.024 10.8045 119.024 13.077C119.024 15.3494 120.56 16.7968 122.564 16.7968C124.568 16.7968 126.104 15.3494 126.104 13.077Z" fill="#5A6058"/>
<path d="M151.221 13.077C151.221 16.7739 148.66 19.1777 145.186 19.1777C143.561 19.1777 142.179 18.621 141.243 17.4848V19.0207H138.594V2.49988H141.377V8.57777C142.334 7.51007 143.67 6.99621 145.186 6.99621C148.66 6.99621 151.221 9.37998 151.221 13.0741V13.077ZM148.394 13.077C148.394 10.8045 146.881 9.35714 144.874 9.35714C142.867 9.35714 141.334 10.8045 141.334 13.077C141.334 15.3494 142.87 16.7968 144.874 16.7968C146.878 16.7968 148.394 15.3494 148.394 13.077Z" fill="#5A6058"/>
<path d="M164.65 7.13037L159.083 19.9799C157.992 22.6748 156.476 23.497 154.495 23.497C153.316 23.497 152.069 23.0973 151.312 22.4065L152.425 20.3567C152.959 20.8677 153.716 21.1818 154.475 21.1818C155.454 21.1818 156.034 20.7136 156.568 19.5345L156.768 19.0663L151.58 7.13037H154.475L158.215 15.926L161.978 7.13037H164.65Z" fill="#5A6058"/>
<path d="M183.397 11.05H186.135V17.2621C184.511 18.5753 182.238 19.2433 180.034 19.2433C175.201 19.2433 171.638 15.8804 171.638 11.227C171.638 6.57366 175.201 3.21069 180.077 3.21069C182.683 3.21069 184.865 4.07856 186.335 5.74862L184.508 7.53003C183.283 6.30531 181.881 5.74862 180.211 5.74862C176.894 5.74862 174.556 7.99821 174.556 11.227C174.556 14.4558 176.894 16.7054 180.188 16.7054C181.302 16.7054 182.392 16.4827 183.394 15.9032V11.05H183.397Z" fill="#00C1B3"/>
<path d="M201.614 16.597V19.0236H189.923V3.43628H201.303V5.86287H192.818V9.9167H200.346V12.3005H192.818V16.597H201.614Z" fill="#00C1B3"/>
<path d="M203.504 17.3763L204.506 15.1268C205.753 16.1288 207.734 16.8425 209.65 16.8425C212.077 16.8425 213.101 15.9746 213.101 14.8156C213.101 11.4526 203.838 13.6565 203.838 7.86697C203.838 5.35188 205.842 3.21362 210.118 3.21362C211.988 3.21362 213.949 3.70465 215.305 4.59535L214.392 6.84494C212.987 6.0199 211.451 5.62023 210.095 5.62023C207.692 5.62023 206.71 6.55661 206.71 7.73565C206.71 11.0529 215.951 8.8947 215.951 14.6157C215.951 17.1108 213.924 19.2463 209.647 19.2463C207.221 19.2463 204.794 18.4897 203.501 17.3763H203.504Z" fill="#00C1B3"/>
<path d="M218.803 3.43628H221.698V19.0236H218.803V3.43628Z" fill="#00C1B3"/>
<path d="M235.992 15.4151H228.198L226.662 19.0236H223.679L230.693 3.43628H233.542L240.579 19.0236H237.55L235.992 15.4151ZM235.035 13.1455L232.095 6.33106L229.177 13.1455H235.032H235.035Z" fill="#00C1B3"/>
</svg>
